<svg width="207" height="207" viewBox="0 0 207 207" fill="none" xmlns="http://www.w3.org/2000/svg">
<path d="M50.4019 133.614L52.5087 133.865C53.4618 133.965 53.5622 134.768 53.5622 135.27V137.728H43.8806V135.27C43.8806 134.768 43.9809 133.965 44.934 133.865L47.0409 133.614V131.507H34.5V133.614L36.6069 133.865C37.56 133.965 37.6603 134.768 37.6603 135.27V143.396C37.6603 143.898 37.56 144.7 36.6069 144.801L34.5 145.051V147.158H47.0409V145.051L44.934 144.801C43.9809 144.7 43.8806 143.898 43.8806 143.396V140.938H53.512V143.396C53.512 143.898 53.4117 144.7 52.4586 144.801L50.3517 145.051V147.158H62.8926V145.051L60.7857 144.801C59.8326 144.7 59.7323 143.898 59.7323 143.396V135.27C59.7323 134.768 59.8326 133.965 60.7857 133.865L62.8926 133.614V131.507H50.3517V133.614H50.4019Z" fill="#313131"/>
<path d="M133.924 131.507H118.474V133.614L120.33 133.815C120.982 133.915 121.433 134.166 121.433 135.069V143.346C121.433 143.848 121.333 144.65 120.38 144.751L118.273 145.001V147.108H133.924C139.543 147.108 144.158 144.851 144.158 139.283C144.158 133.715 139.543 131.507 133.924 131.507ZM132.77 144.149H127.503V134.517H132.77C135.881 134.517 136.934 135.972 136.934 139.333C136.934 142.644 135.881 144.149 132.77 144.149Z" fill="#313131"/>
<path d="M170.443 144.801C169.44 144.7 169.139 144.048 168.838 143.597L161.615 132.561C161.113 131.758 160.712 131.507 159.959 131.507H148.121V133.614L150.98 133.915C151.381 133.965 151.933 134.517 151.482 135.219L146.114 143.898C145.914 144.249 145.613 144.65 145.011 144.751L142.904 145.001V147.108H152.886V145.001L151.181 144.851C150.428 144.751 150.027 144.249 150.428 143.647L151.231 142.343H160.862L161.565 143.396C162.217 144.349 161.414 144.751 160.712 144.801L158.956 145.001V147.108H172.5V145.001L170.443 144.801ZM152.886 139.584L155.846 134.768L159.006 139.584H152.886Z" fill="#313131"/>
<path d="M107.287 133.614L109.394 133.864C110.347 133.965 110.447 134.767 110.447 135.269V143.094L102.17 132.159C101.819 131.657 101.468 131.507 100.565 131.507H89.8302V133.614L91.9371 133.864C92.8902 133.965 92.9905 134.767 92.9905 135.269V143.395C92.9905 143.897 92.8902 144.7 91.9371 144.8L89.8302 145.051V147.158H99.8629V145.051L97.7561 144.8C96.803 144.7 96.7026 143.897 96.7026 143.395V135.57L104.98 146.455C105.381 146.957 105.682 147.108 106.585 147.108H106.685H114.21V135.219C114.21 134.717 114.31 133.915 115.263 133.814L117.37 133.563V131.457H107.387L107.287 133.614Z" fill="#313131"/>
<path d="M76.3363 130.955C66.1531 130.955 63.5446 135.419 63.5446 139.282C63.5446 143.145 66.1531 147.659 76.3363 147.659C86.5195 147.659 89.128 143.195 89.128 139.332C89.128 135.419 86.5195 130.955 76.3363 130.955ZM76.3363 144.7C72.3734 144.7 70.7682 143.044 70.7682 139.332C70.7682 135.62 72.4236 133.965 76.3363 133.965C80.2993 133.965 81.9045 135.62 81.9045 139.332C81.9045 143.044 80.2993 144.7 76.3363 144.7Z" fill="#313131"/>
<path d="M120.832 65.5422C119.126 73.2173 118.424 76.7789 117.019 82.2969C115.665 87.6142 114.611 92.5804 112.805 94.9883C111 97.4463 108.542 97.9479 106.886 98.1486C106.033 98.2489 105.381 98.2991 103.525 98.2991C101.669 98.2991 101.017 98.2489 100.164 98.1486C98.5088 97.9479 96.0508 97.4463 94.2449 94.9883C92.439 92.5804 91.3856 87.6142 90.0813 82.2969C88.6767 76.7287 87.9745 73.2173 86.2689 65.5422C86.2689 65.5422 84.5633 65.5924 83.8109 65.6426C82.7575 65.6927 81.9548 65.7931 81.1021 65.8934C81.1021 65.8934 82.1053 81.6949 82.5568 88.4168C83.0083 95.4397 83.861 107.328 84.6135 116.308C84.6135 116.308 86.0682 116.559 88.4761 116.659C90.9843 116.809 92.138 116.809 92.138 116.809C93.1915 112.846 94.4456 107.379 95.9003 105.021C97.1042 103.115 98.9101 102.914 99.9636 102.764C101.569 102.563 102.973 102.513 103.575 102.513C104.227 102.513 105.582 102.513 107.187 102.764C108.241 102.914 110.046 103.115 111.25 105.021C112.705 107.379 114.009 112.846 115.013 116.809C115.013 116.809 116.116 116.809 118.624 116.659C121.032 116.508 122.487 116.308 122.487 116.308C123.239 107.328 124.092 95.4899 124.544 88.4168C124.995 81.7451 125.998 65.8934 125.998 65.8934C125.146 65.7931 124.293 65.6927 123.29 65.6426C122.537 65.5924 120.832 65.5422 120.832 65.5422Z" fill="#313131"/>
<path d="M140.747 74.8723C139.743 64.8396 133.021 62.7327 127.152 61.7294C124.193 61.2278 118.925 60.8265 115.564 60.676C112.605 60.4753 105.682 60.375 103.575 60.375C101.468 60.375 94.5459 60.4753 91.5863 60.676C88.2253 60.8265 82.9581 61.2278 79.9985 61.7294C74.1293 62.7327 67.4074 64.8396 66.4041 74.8723C66.1032 77.6313 66.053 81.1929 66.1032 85.0053C66.2035 91.3761 66.7553 95.64 67.0563 98.6498C67.2569 100.707 68.1097 106.826 69.2133 109.987C70.7182 114.351 72.0726 115.605 73.6779 116.909C76.5873 119.267 81.403 120.019 82.4063 120.22C87.824 121.173 98.7596 121.374 103.626 121.374C108.441 121.374 119.427 121.223 124.845 120.22C125.848 120.019 130.664 119.317 133.573 116.909C135.178 115.605 136.533 114.351 138.038 109.987C139.141 106.826 139.994 100.656 140.195 98.6498C140.496 95.6902 141.048 91.3761 141.148 85.0053C141.098 81.1427 140.997 77.5811 140.747 74.8723ZM137.034 91.7272C136.432 99.7534 135.73 104.569 134.727 108.03C133.824 111.09 132.72 113.097 131.115 114.552C128.406 117.01 124.694 117.511 122.487 117.862C117.772 118.565 109.796 118.816 103.575 118.816C97.3049 118.816 89.379 118.565 84.6637 117.862C82.4565 117.511 78.7444 117.01 76.0355 114.552C74.4303 113.097 73.3267 111.04 72.4238 108.03C71.4205 104.569 70.668 99.7534 70.1162 91.7272C69.7651 86.9115 69.8153 79.086 70.3671 74.8723C71.1195 68.5517 74.2297 65.3914 80.9014 64.2376C84.0116 63.6858 88.2253 63.2845 92.1882 63.0838C95.3987 62.8832 100.616 62.7829 103.575 62.7829C106.485 62.7327 111.752 62.8832 114.912 63.0838C118.875 63.2845 123.089 63.6858 126.199 64.2376C132.871 65.4415 135.981 68.6018 136.784 74.8723C137.335 79.0359 137.386 86.8614 137.034 91.7272Z" fill="#313131"/>
</svg>
