<svg width="207" height="207" viewBox="0 0 207 207" fill="none" xmlns="http://www.w3.org/2000/svg">
<path fill-rule="evenodd" clip-rule="evenodd" d="M117.946 112.288C118.997 117.718 116.151 122.228 113.786 126.606C111.16 130.679 106.825 134.18 101.614 133.656C89.9212 133.481 78.4933 131.685 67.8953 128.488C67.4141 128.357 66.9329 128.049 66.6695 127.612C66.4502 126.999 66.7578 126.429 67.1948 126.036C76.8731 118.197 88.3893 114.564 99.7746 110.753C104.021 109.527 108.533 108.213 113.305 108.827C115.274 109.09 117.245 110.448 117.946 112.288ZM157.838 89.0802C163.268 93.5463 168.173 99.634 166.509 106.99C163.794 117.85 151.971 123.63 142.556 127.308C137.433 129.016 132.266 130.769 126.661 131.294C126.311 131.25 125.741 131.337 125.653 130.811L125.784 130.199C133.754 121.221 139.796 111.152 145.096 100.948C147.548 96.3496 149.826 91.6215 151.927 86.9789C152.233 86.6286 152.541 86.4535 152.891 86.3225C154.86 86.4962 156.262 88.0295 157.838 89.0802ZM81.4245 77.5198L81.2494 78.1762C69.7332 91.2684 62.1578 106.463 54.9767 121.57C53.5758 122.884 52.2176 121.132 50.9477 120.562C44.5538 116.359 38.7737 109.571 40.438 101.515C43.1088 91.0064 53.9246 85.4014 62.9465 81.593C68.2882 79.5785 73.8506 77.9584 79.7176 77.0387C80.3312 77.0372 81.1185 76.9504 81.4245 77.5198ZM138.571 79.6212C139.228 79.9714 140.017 80.1024 140.411 80.7587C140.761 81.5033 140.061 81.9845 139.666 82.4671C130.602 89.5599 120.224 93.5022 109.626 96.9617C104.239 98.2758 98.8092 100.641 92.8113 99.3265C91.4089 98.9762 90.1404 98.0565 89.3517 96.6983C87.8625 92.5824 89.877 88.2915 91.6281 84.7009C93.9488 80.1907 98.0661 74.8917 103.758 74.8049C116.019 74.7166 127.579 76.556 138.571 79.6212ZM153.722 79.9714C163.006 85.0511 173.516 93.9833 172.421 105.894C171.151 116.929 160.861 124.635 151.665 129.278C124.821 142.108 87.1194 142.501 59.4001 131.293C50.0279 127.396 39.5183 120.696 35.576 110.623C32.555 102.348 36.2323 93.7214 42.4084 87.9854C55.3255 76.2499 71.7904 72.2223 88.7381 69.9003C107.131 67.6665 126.484 69.6369 142.949 75.2861C146.628 76.6443 150.263 78.1335 153.722 79.9714Z" fill="#003984"/>
</svg>
