<svg width="207" height="207" viewBox="0 0 207 207" fill="none" xmlns="http://www.w3.org/2000/svg">
<g clip-path="url(#clip0_45_760)">
<path d="M114.56 114.992C114.56 115.254 114.642 115.406 114.794 115.406C114.923 115.406 115.029 115.338 115.126 115.268L158.136 87.3539C158.863 86.846 159.733 86.5847 160.619 86.6087H170.071C171.52 86.6087 172.5 87.5744 172.5 89.0234V107.072C172.5 109.252 172.017 110.522 170.085 111.68L158.619 118.58C158.504 118.659 158.369 118.718 158.232 118.718C158.096 118.718 157.957 118.608 157.957 118.208V97.151C157.957 96.9024 157.888 96.737 157.722 96.737C157.601 96.737 157.486 96.7989 157.391 96.8751L125.957 117.297C125.24 117.78 124.398 118.042 123.542 118.029H102.706C101.244 118.029 100.278 117.063 100.278 115.6V89.5898C100.278 89.3966 100.195 89.2174 100.029 89.2174C99.9086 89.2174 99.7941 89.2805 99.6979 89.3555L78.9592 101.801C78.7522 101.939 78.6972 102.036 78.6972 102.132C78.6972 102.215 78.7388 102.298 78.8765 102.45L93.6962 117.256C93.8893 117.449 94.0274 117.601 94.0274 117.766C94.0274 117.904 93.8066 118.015 93.5446 118.015H80.1597C79.1108 118.015 78.2967 117.863 77.7311 117.297L68.7482 108.328C68.6793 108.246 68.5803 108.19 68.4723 108.19C68.375 108.19 68.28 108.223 68.1965 108.273L53.1837 117.297C52.273 117.849 51.652 118.001 50.7551 118.001H36.9428C35.4665 118.015 34.5003 117.035 34.5003 115.586V97.8824C34.5003 95.6885 34.9832 94.4327 36.9289 93.2738L48.4647 86.3471C48.5543 86.2861 48.6598 86.2525 48.7682 86.2505C48.9475 86.2505 49.0441 86.4298 49.0441 86.8299V110.536C49.0441 110.784 49.0991 110.894 49.2788 110.894C49.4011 110.894 49.5135 110.826 49.624 110.756L88.5913 87.3124C89.3365 86.8018 90.2473 86.5537 91.158 86.5948H112.132C113.581 86.5948 114.56 87.5605 114.56 89.0095L114.547 114.992H114.56Z" fill="#D00414"/>
</g>
<defs>
<clipPath id="clip0_45_760">
<rect width="138" height="32.468" fill="white" transform="translate(34.5 86.25)"/>
</clipPath>
</defs>
</svg>
