<svg width="207" height="207" viewBox="0 0 207 207" fill="none" xmlns="http://www.w3.org/2000/svg">
<g clip-path="url(#clip0_45_772)">
<path d="M133.812 98.8891C133.812 98.8891 128.125 100.532 117.124 107.292C107.262 113.363 103.395 117.441 103.395 117.441L72.9703 96.4149C72.9703 96.4149 85.77 87.0023 96.4648 94.2115L110.811 104.053L112.561 102.902L72.9764 75.1688C72.9764 75.1688 78.6654 73.5235 89.6598 66.7677C99.5278 60.695 103.395 56.6145 103.395 56.6145L133.818 77.641C133.818 77.641 121.02 87.0536 110.323 79.8444L95.9766 70.0009L94.2266 71.1498L133.812 98.8891Z" fill="#E20A17"/>
<path d="M110.248 127.573H87.0924V132.723H98.2775L86.6985 143.532V147.847H110.205V142.677H98.5094L110.248 131.894V127.573Z" fill="#003399"/>
<path d="M73.4583 148.365C82.7191 148.365 85.0907 146 85.0907 140.785V127.573H77.7543V139.995C77.7543 142.081 75.9694 143.325 73.4583 143.325C70.8467 143.325 69.1664 142.075 69.1664 139.962V127.573H61.83V140.785C61.83 146 64.2016 148.365 73.4583 148.365Z" fill="#003399"/>
<path d="M123.692 148.365C132.952 148.365 135.324 146 135.324 140.785V127.573H127.985V139.995C127.985 142.081 126.199 143.325 123.692 143.325C121.08 143.325 119.394 142.075 119.394 139.962V127.573H112.059V140.785C112.059 146 114.431 148.365 123.692 148.365Z" fill="#003399"/>
<path d="M171.948 127.573H164.298V147.846H171.948V127.573Z" fill="#003399"/>
<path d="M163.132 127.573H153.067L144.923 134.569V127.573H137.27V147.847H144.923V140.656L152.487 147.847H162.765L151.578 137.445L163.132 127.573Z" fill="#003399"/>
<path d="M43.7467 133.175C43.7467 131.607 46.0691 131.556 46.8528 131.556C47.6386 131.556 49.4091 131.87 50.6133 133.846H59.2648C59.2648 130.026 55.6438 126.987 46.8795 126.987C37.1448 126.987 35.4871 131.259 35.4871 133.712C35.4871 138.236 38.9912 139.561 46.6107 140.374C47.2631 140.442 51.2267 140.255 51.2267 142.161C51.2267 143.572 48.9987 143.667 48.1781 143.667C47.3636 143.667 45.8393 143.533 44.5797 141.291H35.0522C35.0522 145.743 38.0536 148.315 48.1638 148.315C57.4758 148.315 59.948 144.514 59.948 141.623C59.948 138.817 58.0215 135.961 50.082 134.945C46.7707 134.517 43.7467 134.336 43.7467 133.175Z" fill="#003399"/>
</g>
<defs>
<clipPath id="clip0_45_772">
<rect width="138" height="92.8546" fill="white" transform="translate(34.5 56.0625)"/>
</clipPath>
</defs>
</svg>
