<svg width="207" height="207" viewBox="0 0 207 207" fill="none" xmlns="http://www.w3.org/2000/svg">
<g clip-path="url(#clip0_45_790)">
<path d="M103.5 60.9949C65.7478 60.9949 35.138 80.7964 35.138 105.216C35.138 129.644 65.7478 149.455 103.5 149.455C141.252 149.455 171.862 129.653 171.862 105.216C171.862 80.7785 141.252 60.9949 103.5 60.9949ZM103.5 130.471C97.8849 130.471 93.3029 119.411 93.0154 105.494C96.3935 105.791 99.9064 105.953 103.5 105.953C107.094 105.953 110.607 105.791 113.985 105.494C113.697 119.402 109.115 130.471 103.5 130.471ZM93.7072 94.4437C95.2345 84.6058 99.0439 77.625 103.5 77.625C107.956 77.625 111.766 84.6058 113.293 94.4437C110.158 94.7222 106.887 94.875 103.5 94.875C100.113 94.875 96.8427 94.7222 93.7072 94.4437ZM103.5 67.3917C96.1689 67.3917 89.9158 78.3707 87.6068 93.698C73.708 91.5328 64.0048 86.5914 64.0048 80.8503C64.0048 73.1058 81.6861 66.8257 103.5 66.8257C125.314 66.8257 142.995 73.1058 142.995 80.8503C142.995 86.5914 133.292 91.5328 119.394 93.698C117.085 78.3707 110.831 67.3917 103.5 67.3917ZM44.94 103.563C44.94 96.0699 47.824 89.0351 52.8462 82.9976C52.7923 83.4199 52.7564 83.8511 52.7564 84.2824C52.7564 93.725 66.9158 101.775 86.6724 104.74C86.6544 105.423 86.6544 106.114 86.6544 106.806C86.6544 124.407 91.5869 139.312 98.406 144.37C68.4431 142.564 44.94 124.982 44.94 103.563ZM108.594 144.37C115.413 139.312 120.346 124.407 120.346 106.806C120.346 106.105 120.337 105.423 120.328 104.74C140.076 101.775 154.244 93.7339 154.244 84.2824C154.244 83.8511 154.208 83.4199 154.154 82.9976C159.176 89.0531 162.06 96.0699 162.06 103.563C162.06 124.982 138.557 142.564 108.594 144.37Z" fill="#313131"/>
</g>
<defs>
<clipPath id="clip0_45_790">
<rect width="138" height="89.7" fill="white" transform="translate(34.5 60.375)"/>
</clipPath>
</defs>
</svg>
