<svg width="1430" height="707" viewBox="0 0 1430 707" fill="none" xmlns="http://www.w3.org/2000/svg">
<path d="M899.734 2.81539C899.734 -20.9018 883.905 -41.8582 860.792 -46.6759C813.725 -56.4862 764.962 -61.6416 715 -61.6416C665.038 -61.6416 616.275 -56.4862 569.208 -46.6759C546.095 -41.8582 530.266 -20.9018 530.266 2.81541V320.003C530.266 335.244 536.874 349.728 548.366 359.676L680.98 474.469C700.532 491.394 729.468 491.394 749.02 474.469L881.634 359.676C893.126 349.728 899.734 335.244 899.734 320.003V2.81539Z" fill="#0077DF"/>
<path d="M256.051 290.788C259.284 233.341 182.533 174.33 147.717 220.014C55.6517 340.815 0.947388 491.879 0.947388 655.781C0.947388 962.26 192.223 1223.85 461.377 1326.63C493.513 1338.9 526.287 1313.82 526.287 1279.28V771.818C526.287 751.251 514.17 732.82 496.187 722.996C352.983 644.768 255.296 492.597 255.296 317.702C255.296 308.681 255.549 299.707 256.051 290.788Z" fill="#0077DF"/>
<path d="M968.471 1326.69C936.336 1338.95 903.571 1313.87 903.571 1279.34V771.992C903.571 751.409 915.707 732.967 933.712 723.149C1077.08 644.971 1174.7 492.73 1174.7 317.702C1174.7 307.492 1174.36 297.321 1173.68 287.202C1169.85 229.878 1244.77 171.348 1279.79 216.764C1373.36 338.101 1429.05 490.406 1429.05 655.781C1429.05 962.318 1237.71 1223.95 968.471 1326.69Z" fill="#0077DF"/>
</svg>
